<svg xmlns="http://www.w3.org/2000/svg" viewBox="0 0 48 48"> class="h-8 w-8" viewBox="0 0 48 48" fill="none" xmlns="http://www.w3.org/2000/svg" aria-hidden="true"><rect x="3" y="3" width="42" height="42" rx="12" fill="url(#lgbookA)"/><path d="M24 15.4c-2.6-2.1-6-3.2-9.6-3.2-1.3 0-2.4 1.1-2.4 2.4v16.6c0 1.3 1.1 2.4 2.4 2.4 3.6 0 7 1.1 9.6 3.2 2.6-2.1 6-3.2 9.6-3.2 1.3 0 2.4-1.1 2.4-2.4V14.6c0-1.3-1.1-2.4-2.4-2.4-3.6 0-7 1.1-9.6 3.2Z" fill="#fff" fill-opacity=".95"/><path d="M24 15.4v21.4" stroke="#6366f1" stroke-width="1.6" stroke-linecap="round"/><path d="M33.5 8.5v11l-2.6-2-2.6 2v-11h5.2Z" fill="#f59e0b"/><defs><linearGradient id="lgbookA" x1="3" y1="3" x2="45" y2="45" gradientUnits="userSpaceOnUse"><stop stop-color="#4f46e5"/><stop offset="1" stop-color="#312e81"/></linearGradient></defs></svg>